<svg width="160" height="34" viewBox="0 0 160 34" fill="none" xmlns="http://www.w3.org/2000/svg">
<path d="M41.048 26V11.168H35.264V9.08H49.328V11.168H43.544V26H41.048ZM54.2283 26.216C53.1563 26.216 52.2203 25.968 51.4203 25.472C50.6203 24.976 49.9963 24.256 49.5483 23.312C49.1163 22.368 48.9003 21.248 48.9003 19.952C48.9003 18.64 49.1163 17.52 49.5483 16.592C49.9963 15.664 50.6203 14.952 51.4203 14.456C52.2203 13.944 53.1563 13.688 54.2283 13.688C55.2843 13.688 56.2043 13.952 56.9883 14.48C57.7723 15.008 58.2923 15.728 58.5483 16.64H58.2843L58.5243 13.904H60.8763C60.8283 14.4 60.7803 14.896 60.7323 15.392C60.7003 15.872 60.6843 16.344 60.6843 16.808V26H58.2603V23.312H58.5243C58.2683 24.208 57.7403 24.92 56.9403 25.448C56.1563 25.96 55.2523 26.216 54.2283 26.216ZM54.8283 24.32C55.8683 24.32 56.7003 23.952 57.3243 23.216C57.9643 22.48 58.2843 21.392 58.2843 19.952C58.2843 18.512 57.9643 17.432 57.3243 16.712C56.7003 15.976 55.8683 15.608 54.8283 15.608C53.7723 15.608 52.9243 15.976 52.2843 16.712C51.6603 17.432 51.3483 18.512 51.3483 19.952C51.3483 21.392 51.6603 22.48 52.2843 23.216C52.9083 23.952 53.7563 24.32 54.8283 24.32ZM68.3733 26.216C67.3653 26.216 66.4373 26.088 65.5893 25.832C64.7413 25.576 64.0373 25.216 63.4773 24.752L64.2213 23.096C64.8133 23.544 65.4693 23.88 66.1893 24.104C66.9093 24.328 67.6453 24.44 68.3973 24.44C69.2773 24.44 69.9413 24.288 70.3893 23.984C70.8373 23.664 71.0613 23.232 71.0613 22.688C71.0613 22.272 70.9173 21.936 70.6293 21.68C70.3573 21.424 69.9013 21.232 69.2613 21.104L66.9573 20.648C65.9333 20.424 65.1573 20.04 64.6293 19.496C64.1013 18.952 63.8373 18.256 63.8373 17.408C63.8373 16.688 64.0293 16.048 64.4133 15.488C64.8133 14.928 65.3733 14.488 66.0933 14.168C66.8293 13.848 67.6853 13.688 68.6613 13.688C69.5573 13.688 70.3893 13.816 71.1573 14.072C71.9253 14.328 72.5653 14.696 73.0773 15.176L72.3093 16.784C71.8133 16.368 71.2533 16.048 70.6293 15.824C70.0053 15.584 69.3733 15.464 68.7333 15.464C67.8373 15.464 67.1733 15.632 66.7413 15.968C66.3093 16.304 66.0933 16.744 66.0933 17.288C66.0933 17.704 66.2213 18.048 66.4773 18.32C66.7493 18.576 67.1733 18.776 67.7493 18.92L70.0533 19.376C71.1413 19.6 71.9573 19.968 72.5013 20.48C73.0453 20.992 73.3173 21.68 73.3173 22.544C73.3173 23.296 73.1093 23.952 72.6933 24.512C72.2773 25.072 71.7013 25.496 70.9653 25.784C70.2293 26.072 69.3653 26.216 68.3733 26.216ZM76.1744 26V8.336H78.5984V19.184H78.6464L83.9264 13.904H86.9264L80.5424 20.264L80.5664 19.184L87.4544 26H84.3824L78.6464 20.456H78.5984V26H76.1744ZM89.1639 26V9.08H96.2199C98.0439 9.08 99.4439 9.464 100.42 10.232C101.412 11 101.908 12.08 101.908 13.472C101.908 14.512 101.596 15.384 100.972 16.088C100.348 16.792 99.4919 17.264 98.4039 17.504V17.144C99.6519 17.304 100.62 17.744 101.308 18.464C101.996 19.184 102.34 20.136 102.34 21.32C102.34 22.824 101.828 23.984 100.804 24.8C99.7959 25.6 98.3719 26 96.5319 26H89.1639ZM91.5879 24.056H96.2679C97.4039 24.056 98.2919 23.84 98.9319 23.408C99.5879 22.976 99.9159 22.248 99.9159 21.224C99.9159 20.2 99.5879 19.472 98.9319 19.04C98.2919 18.608 97.4039 18.392 96.2679 18.392H91.5879V24.056ZM91.5879 16.472H95.8359C97.0519 16.472 97.9639 16.24 98.5719 15.776C99.1799 15.312 99.4839 14.632 99.4839 13.736C99.4839 12.84 99.1799 12.16 98.5719 11.696C97.9639 11.232 97.0519 11 95.8359 11H91.5879V16.472ZM109.674 26.216C108.218 26.216 107.122 25.824 106.386 25.04C105.666 24.24 105.306 23.016 105.306 21.368V13.904H107.73V21.32C107.73 22.328 107.938 23.072 108.354 23.552C108.77 24.032 109.402 24.272 110.25 24.272C111.21 24.272 111.986 23.952 112.578 23.312C113.17 22.672 113.466 21.824 113.466 20.768V13.904H115.89V26H113.538V23.408H113.85C113.514 24.304 112.978 25 112.242 25.496C111.506 25.976 110.65 26.216 109.674 26.216ZM124.072 26.216C123.016 26.216 122.08 25.968 121.264 25.472C120.464 24.976 119.84 24.256 119.392 23.312C118.96 22.368 118.744 21.248 118.744 19.952C118.744 18.64 118.96 17.52 119.392 16.592C119.84 15.664 120.464 14.952 121.264 14.456C122.08 13.944 123.016 13.688 124.072 13.688C125.112 13.688 126.024 13.952 126.808 14.48C127.608 14.992 128.136 15.696 128.392 16.592H128.104V8.336H130.528V26H128.128V23.264H128.416C128.144 24.176 127.616 24.896 126.832 25.424C126.048 25.952 125.128 26.216 124.072 26.216ZM124.672 24.32C125.712 24.32 126.552 23.952 127.192 23.216C127.832 22.48 128.152 21.392 128.152 19.952C128.152 18.512 127.832 17.432 127.192 16.712C126.552 15.976 125.712 15.608 124.672 15.608C123.616 15.608 122.768 15.976 122.128 16.712C121.504 17.432 121.192 18.512 121.192 19.952C121.192 21.392 121.504 22.48 122.128 23.216C122.768 23.952 123.616 24.32 124.672 24.32ZM138.697 26.216C137.641 26.216 136.705 25.968 135.889 25.472C135.089 24.976 134.465 24.256 134.017 23.312C133.585 22.368 133.369 21.248 133.369 19.952C133.369 18.64 133.585 17.52 134.017 16.592C134.465 15.664 135.089 14.952 135.889 14.456C136.705 13.944 137.641 13.688 138.697 13.688C139.737 13.688 140.649 13.952 141.433 14.48C142.233 14.992 142.761 15.696 143.017 16.592H142.729V8.336H145.153V26H142.753V23.264H143.041C142.769 24.176 142.241 24.896 141.457 25.424C140.673 25.952 139.753 26.216 138.697 26.216ZM139.297 24.32C140.337 24.32 141.177 23.952 141.817 23.216C142.457 22.48 142.777 21.392 142.777 19.952C142.777 18.512 142.457 17.432 141.817 16.712C141.177 15.976 140.337 15.608 139.297 15.608C138.241 15.608 137.393 15.976 136.753 16.712C136.129 17.432 135.817 18.512 135.817 19.952C135.817 21.392 136.129 22.48 136.753 23.216C137.393 23.952 138.241 24.32 139.297 24.32ZM148.33 31.448L147.754 29.48C148.506 29.32 149.13 29.128 149.626 28.904C150.138 28.68 150.562 28.384 150.898 28.016C151.234 27.664 151.522 27.208 151.762 26.648L152.362 25.232L152.314 26.216L147.058 13.904H149.65L153.73 23.984H153.082L157.162 13.904H159.658L154.114 26.864C153.762 27.664 153.386 28.336 152.986 28.88C152.586 29.424 152.154 29.864 151.69 30.2C151.226 30.536 150.714 30.8 150.154 30.992C149.594 31.184 148.986 31.336 148.33 31.448Z" fill="#2F2F2F"/>
<path d="M9.66536 28.5837H19.332C21.9904 28.5837 24.1654 26.4087 24.1654 23.7503V10.4587C24.1654 8.04199 22.4737 6.10866 20.1779 5.74616C19.6945 4.90033 18.8487 4.41699 17.882 4.41699H11.1154C10.1487 4.41699 9.30287 4.90033 8.81953 5.74616C6.5237 6.10866 4.83203 8.04199 4.83203 10.4587V23.7503C4.83203 26.4087 7.00703 28.5837 9.66536 28.5837ZM10.8737 6.95449C10.8737 6.95449 10.9945 6.83366 11.1154 6.83366H18.0029L18.1237 6.95449V7.80033C18.1237 7.92116 18.0029 8.04199 17.882 8.04199H11.1154C10.9945 8.04199 10.8737 7.92116 10.8737 7.80033V6.95449ZM7.2487 10.4587C7.2487 9.49199 7.73203 8.76699 8.45703 8.28366V8.40449C8.45703 8.52533 8.57786 8.64616 8.57786 8.76699C8.57786 8.76699 8.57786 8.88783 8.6987 8.88783C8.6987 9.00866 8.81953 9.12949 8.81953 9.12949L8.94036 9.25033C8.94036 9.37116 9.0612 9.37116 9.18203 9.49199L9.30286 9.61283L9.54453 9.85449L9.66536 9.97533C9.7862 9.97533 9.7862 10.0962 9.90703 10.0962C9.90703 10.0962 10.0279 10.0962 10.0279 10.217C10.1487 10.217 10.2695 10.3378 10.3904 10.3378H10.5112C10.7529 10.4587 10.8737 10.4587 11.1154 10.4587H18.607C18.7279 10.4587 18.8487 10.4587 18.9695 10.3378C18.9695 10.3378 19.0904 10.3378 19.0904 10.217C19.2112 10.217 19.2112 10.0962 19.332 10.0962L19.4529 9.97533C19.5737 9.97533 19.5737 9.85449 19.6945 9.73366L19.8154 9.61283L20.057 9.37116L20.1779 9.25033C20.1779 9.12949 20.2987 9.12949 20.2987 9.00866C20.2987 9.00866 20.2987 8.88783 20.4195 8.88783C20.4195 8.76699 20.5404 8.64616 20.5404 8.52533V8.40449C21.2654 8.76699 21.7487 9.61282 21.7487 10.5795V23.8712C21.7487 25.2003 20.6612 26.2878 19.332 26.2878H9.66536C8.3362 26.2878 7.2487 25.2003 7.2487 23.8712V10.4587Z" fill="#2F2F2F"/>
<path d="M10.8763 21.333H13.293C14.018 21.333 14.5013 20.8497 14.5013 20.1247C14.5013 19.3997 14.018 18.9163 13.293 18.9163H10.8763C10.1513 18.9163 9.66797 19.3997 9.66797 20.1247C9.66797 20.8497 10.1513 21.333 10.8763 21.333ZM10.8763 16.4997H18.1263C18.8513 16.4997 19.3346 16.0163 19.3346 15.2913C19.3346 14.5663 18.8513 14.083 18.1263 14.083H10.8763C10.1513 14.083 9.66797 14.5663 9.66797 15.2913C9.66797 16.0163 10.1513 16.4997 10.8763 16.4997Z" fill="#2F2F2F"/>
</svg>
