<svg width="170" height="38" viewBox="0 0 170 38" fill="none" xmlns="http://www.w3.org/2000/svg">
<path d="M54.023 10.6501V13.845H48.4188V28.9814H45.2239V13.845H39.6198V10.6501H54.023ZM64.5167 15.8876H67.7116V28.9814H64.5167L64.3726 27.3578C64.0147 27.9427 63.539 28.4184 62.9454 28.785C62.3606 29.1429 61.6666 29.3219 60.8635 29.3219C59.8946 29.3219 58.9867 29.1386 58.14 28.7719C57.2932 28.4053 56.5469 27.899 55.9009 27.2531C55.2637 26.6071 54.7618 25.8607 54.3951 25.014C54.0372 24.1673 53.8583 23.2594 53.8583 22.2905C53.8583 21.3565 54.0285 20.4792 54.369 19.6586C54.7181 18.8381 55.2026 18.1179 55.8224 17.4982C56.4421 16.8784 57.1579 16.3939 57.9698 16.0447C58.7816 15.6956 59.6545 15.521 60.5885 15.521C61.4527 15.521 62.2253 15.713 62.9061 16.0971C63.5957 16.4812 64.1806 16.97 64.6607 17.5636L64.5167 15.8876ZM60.7849 26.2448C61.4658 26.2448 62.0681 26.0746 62.5919 25.7342C63.1156 25.3937 63.5259 24.9355 63.8227 24.3593C64.1195 23.7745 64.2679 23.1329 64.2679 22.4345C64.2679 21.7275 64.1195 21.0859 63.8227 20.5097C63.5259 19.9249 63.1113 19.4622 62.5788 19.1218C62.055 18.7813 61.4571 18.6111 60.7849 18.6111C60.1128 18.6111 59.4974 18.7857 58.9387 19.1349C58.3888 19.4753 57.9479 19.9336 57.6162 20.5097C57.2932 21.0859 57.1318 21.7275 57.1318 22.4345C57.1318 23.1416 57.2976 23.7832 57.6293 24.3593C57.961 24.9355 58.4019 25.3937 58.9518 25.7342C59.5105 26.0746 60.1215 26.2448 60.7849 26.2448ZM74.1834 29.2171C73.5025 29.1735 72.8435 29.0382 72.2062 28.8112C71.5777 28.5755 71.0191 28.2569 70.5302 27.8554C70.0414 27.4538 69.666 26.9737 69.4042 26.4151L72.1015 25.2628C72.2062 25.4374 72.3765 25.6251 72.6121 25.8258C72.8478 26.0179 73.1272 26.1794 73.4501 26.3103C73.7819 26.4412 74.1441 26.5067 74.5369 26.5067C74.8686 26.5067 75.1829 26.4631 75.4797 26.3758C75.7852 26.2798 76.0296 26.1357 76.2129 25.9437C76.405 25.7516 76.501 25.5029 76.501 25.1973C76.501 24.8743 76.3875 24.6256 76.1606 24.451C75.9423 24.2677 75.663 24.1324 75.3226 24.0451C74.9909 23.949 74.6679 23.8618 74.3536 23.7832C73.5243 23.6173 72.7518 23.3598 72.036 23.0107C71.3289 22.6615 70.7572 22.2119 70.3207 21.662C69.893 21.1033 69.6791 20.4312 69.6791 19.6455C69.6791 18.7813 69.9061 18.035 70.36 17.4065C70.8227 16.778 71.4206 16.2935 72.1539 15.9531C72.8958 15.6126 73.6946 15.4424 74.55 15.4424C75.5888 15.4424 76.5403 15.6607 77.4045 16.0971C78.2774 16.5248 78.967 17.1315 79.4733 17.9172L76.9462 19.4099C76.824 19.2004 76.6538 19.0083 76.4355 18.8337C76.2173 18.6504 75.9685 18.502 75.6892 18.3885C75.4099 18.2663 75.1174 18.1965 74.8119 18.179C74.4191 18.1616 74.0612 18.1965 73.7382 18.2838C73.4152 18.3711 73.1534 18.5195 72.9526 18.729C72.7605 18.9385 72.6645 19.2178 72.6645 19.567C72.6645 19.8987 72.7955 20.1475 73.0573 20.3133C73.3192 20.4705 73.6335 20.5927 74.0001 20.68C74.3754 20.7672 74.7333 20.8633 75.0738 20.968C75.842 21.2212 76.5621 21.5311 77.2343 21.8977C77.9151 22.2643 78.4607 22.7139 78.871 23.2463C79.2813 23.7788 79.4777 24.4161 79.4602 25.158C79.4602 26.0048 79.2071 26.7468 78.7008 27.384C78.1945 28.0125 77.5398 28.4926 76.7367 28.8243C75.9423 29.156 75.0912 29.287 74.1834 29.2171ZM93.3939 28.9814H89.7145L86.7291 23.8356L84.896 26.0222V28.9814H81.7011V9.34069H84.896V21.0597L89.2301 15.8876H93.407L88.9158 21.243L93.3939 28.9814ZM95.7156 28.9814V10.6501H102.393C103.362 10.6501 104.235 10.8508 105.012 11.2524C105.798 11.6452 106.418 12.2126 106.872 12.9546C107.334 13.6878 107.566 14.5564 107.566 15.5603C107.566 16.0055 107.5 16.455 107.369 16.9089C107.238 17.3628 107.037 17.7731 106.767 18.1397C106.496 18.4976 106.147 18.7639 105.719 18.9385C106.287 19.0781 106.749 19.3313 107.107 19.6979C107.465 20.0645 107.744 20.4966 107.945 20.9942C108.146 21.483 108.281 21.985 108.351 22.5C108.43 23.0063 108.469 23.4777 108.469 23.9141C108.469 24.8831 108.229 25.7473 107.749 26.5067C107.269 27.2662 106.623 27.8685 105.811 28.3137C105.008 28.7589 104.117 28.9814 103.14 28.9814H95.7156ZM98.9105 26.2448H102.812C103.336 26.2448 103.808 26.1183 104.227 25.8651C104.646 25.612 104.982 25.2628 105.235 24.8176C105.488 24.3724 105.615 23.8661 105.615 23.2987C105.615 22.8099 105.488 22.3472 105.235 21.9108C104.982 21.4743 104.646 21.1208 104.227 20.8502C103.808 20.5796 103.336 20.4443 102.812 20.4443H98.9105V26.2448ZM98.9105 17.7469H102.027C102.673 17.7469 103.223 17.5462 103.677 17.1446C104.139 16.7431 104.371 16.2106 104.371 15.5472C104.371 14.8401 104.139 14.3076 103.677 13.9497C103.223 13.5831 102.673 13.3998 102.027 13.3998H98.9105V17.7469ZM110.05 24.1367V15.8876H113.245V23.2987C113.245 23.8137 113.372 24.2851 113.625 24.7129C113.878 25.1319 114.214 25.4679 114.633 25.7211C115.061 25.9655 115.528 26.0877 116.034 26.0877C116.558 26.0877 117.029 25.9655 117.448 25.7211C117.867 25.4679 118.203 25.1319 118.457 24.7129C118.71 24.2851 118.836 23.8137 118.836 23.2987V15.8876H122.031L122.044 28.9814H118.849L118.836 27.7899C118.382 28.2613 117.845 28.6366 117.226 28.916C116.606 29.1866 115.943 29.3219 115.235 29.3219C114.284 29.3219 113.415 29.0906 112.63 28.6279C111.844 28.1565 111.216 27.5324 110.744 26.7555C110.282 25.9699 110.05 25.0969 110.05 24.1367ZM134.36 9.34069H137.554V28.9814H134.36V27.3447C133.941 27.9296 133.412 28.4053 132.775 28.7719C132.138 29.1386 131.4 29.3219 130.562 29.3219C129.611 29.3219 128.721 29.1429 127.891 28.785C127.062 28.4271 126.329 27.9339 125.691 27.3054C125.063 26.6682 124.57 25.9349 124.212 25.1057C123.854 24.2764 123.675 23.386 123.675 22.4345C123.675 21.483 123.854 20.5927 124.212 19.7634C124.57 18.9341 125.063 18.2052 125.691 17.5767C126.329 16.9395 127.062 16.4419 127.891 16.084C128.721 15.7261 129.611 15.5472 130.562 15.5472C131.4 15.5472 132.138 15.7305 132.775 16.0971C133.412 16.455 133.941 16.9308 134.36 17.5243V9.34069ZM130.602 26.2448C131.283 26.2448 131.885 26.0746 132.409 25.7342C132.932 25.3937 133.343 24.9355 133.639 24.3593C133.936 23.7745 134.085 23.1329 134.085 22.4345C134.085 21.7275 133.936 21.0859 133.639 20.5097C133.343 19.9249 132.928 19.4622 132.396 19.1218C131.872 18.7813 131.274 18.6111 130.602 18.6111C129.93 18.6111 129.314 18.7857 128.755 19.1349C128.205 19.4753 127.765 19.9336 127.433 20.5097C127.11 21.0859 126.948 21.7275 126.948 22.4345C126.948 23.1416 127.114 23.7832 127.446 24.3593C127.778 24.9355 128.219 25.3937 128.769 25.7342C129.327 26.0746 129.938 26.2448 130.602 26.2448ZM150.394 9.34069H153.589V28.9814H150.394V27.3447C149.975 27.9296 149.447 28.4053 148.81 28.7719C148.173 29.1386 147.435 29.3219 146.597 29.3219C145.646 29.3219 144.755 29.1429 143.926 28.785C143.097 28.4271 142.364 27.9339 141.726 27.3054C141.098 26.6682 140.605 25.9349 140.247 25.1057C139.889 24.2764 139.71 23.386 139.71 22.4345C139.71 21.483 139.889 20.5927 140.247 19.7634C140.605 18.9341 141.098 18.2052 141.726 17.5767C142.364 16.9395 143.097 16.4419 143.926 16.084C144.755 15.7261 145.646 15.5472 146.597 15.5472C147.435 15.5472 148.173 15.7305 148.81 16.0971C149.447 16.455 149.975 16.9308 150.394 17.5243V9.34069ZM146.636 26.2448C147.317 26.2448 147.92 26.0746 148.443 25.7342C148.967 25.3937 149.377 24.9355 149.674 24.3593C149.971 23.7745 150.119 23.1329 150.119 22.4345C150.119 21.7275 149.971 21.0859 149.674 20.5097C149.377 19.9249 148.963 19.4622 148.43 19.1218C147.907 18.7813 147.309 18.6111 146.636 18.6111C145.964 18.6111 145.349 18.7857 144.79 19.1349C144.24 19.4753 143.799 19.9336 143.468 20.5097C143.145 21.0859 142.983 21.7275 142.983 22.4345C142.983 23.1416 143.149 23.7832 143.481 24.3593C143.813 24.9355 144.253 25.3937 144.803 25.7342C145.362 26.0746 145.973 26.2448 146.636 26.2448ZM164.822 15.8876H168.213L161.051 35.5284H157.66L160.03 28.9814L155.316 15.8876H158.812L161.627 24.6081L164.822 15.8876Z" fill="#7B1984"/>
<path d="M11.6569 32.4429H22.5685C25.5691 32.4429 28.0242 29.9878 28.0242 26.9871V11.9838C28.0242 9.25589 26.1147 7.07358 23.5232 6.6644C22.9776 5.70964 22.0229 5.16406 20.9317 5.16406H13.2937C12.2025 5.16406 11.2478 5.70964 10.7022 6.6644C8.11069 7.07358 6.20117 9.25589 6.20117 11.9838V26.9871C6.20117 29.9878 8.65627 32.4429 11.6569 32.4429ZM13.0209 8.02834C13.0209 8.02834 13.1573 7.89194 13.2937 7.89194H21.0681L21.2045 8.02834V8.9831C21.2045 9.11949 21.0681 9.25589 20.9317 9.25589H13.2937C13.1573 9.25589 13.0209 9.11949 13.0209 8.9831V8.02834ZM8.92905 11.9838C8.92905 10.8926 9.47463 10.0742 10.293 9.52867V9.66507C10.293 9.80146 10.4294 9.93786 10.4294 10.0742C10.4294 10.0742 10.4294 10.2106 10.5658 10.2106C10.5658 10.347 10.7022 10.4834 10.7022 10.4834L10.8386 10.6198C10.8386 10.7562 10.975 10.7562 11.1114 10.8926L11.2478 11.029L11.5205 11.3018L11.6569 11.4382C11.7933 11.4382 11.7933 11.5746 11.9297 11.5746C11.9297 11.5746 12.0661 11.5746 12.0661 11.711C12.2025 11.711 12.3389 11.8474 12.4753 11.8474H12.6117C12.8845 11.9838 13.0209 11.9838 13.2937 11.9838H21.7501C21.8865 11.9838 22.0229 11.9838 22.1593 11.8474C22.1593 11.8474 22.2957 11.8474 22.2957 11.711C22.4321 11.711 22.4321 11.5746 22.5685 11.5746L22.7049 11.4382C22.8413 11.4382 22.8413 11.3018 22.9776 11.1654L23.114 11.029L23.3868 10.7562L23.5232 10.6198C23.5232 10.4834 23.6596 10.4834 23.6596 10.347C23.6596 10.347 23.6596 10.2106 23.796 10.2106C23.796 10.0742 23.9324 9.93786 23.9324 9.80146V9.66507C24.7508 10.0743 25.2963 11.029 25.2963 12.1202V27.1235C25.2963 28.6238 24.0688 29.8514 22.5685 29.8514H11.6569C10.1566 29.8514 8.92905 28.6238 8.92905 27.1235V11.9838Z" fill="#7B1984"/>
<path d="M13.0221 24.2588H15.75C16.5684 24.2588 17.114 23.7133 17.114 22.8949C17.114 22.0765 16.5684 21.531 15.75 21.531H13.0221C12.2038 21.531 11.6582 22.0765 11.6582 22.8949C11.6582 23.7133 12.2038 24.2588 13.0221 24.2588ZM13.0221 18.8031H21.2058C22.0242 18.8031 22.5697 18.2575 22.5697 17.4391C22.5697 16.6208 22.0242 16.0752 21.2058 16.0752H13.0221C12.2038 16.0752 11.6582 16.6208 11.6582 17.4391C11.6582 18.2575 12.2038 18.8031 13.0221 18.8031Z" fill="#7B1984"/>
</svg>
