<svg width="16" height="16" viewBox="0 0 16 16" fill="none" xmlns="http://www.w3.org/2000/svg">
<path fill-rule="evenodd" clip-rule="evenodd" d="M10.6666 10.6668C10.6666 11.0335 10.3666 11.3335 9.99992 11.3335C9.63325 11.3335 9.33325 11.0335 9.33325 10.6668V8.00016C9.33325 7.6335 9.63325 7.3335 9.99992 7.3335C10.3666 7.3335 10.6666 7.6335 10.6666 8.00016V10.6668ZM6.66659 2.8855C6.66659 2.78216 6.80925 2.66683 6.99992 2.66683H8.99992C9.19059 2.66683 9.33325 2.78216 9.33325 2.8855V4.00016H6.66659V2.8855ZM6.66659 10.6668C6.66659 11.0335 6.36659 11.3335 5.99992 11.3335C5.63325 11.3335 5.33325 11.0335 5.33325 10.6668V8.00016C5.33325 7.6335 5.63325 7.3335 5.99992 7.3335C6.36659 7.3335 6.66659 7.6335 6.66659 8.00016V10.6668ZM13.9999 4.00016H13.3333H10.6666V2.8855C10.6666 2.0295 9.91925 1.3335 8.99992 1.3335H6.99992C6.08059 1.3335 5.33325 2.0295 5.33325 2.8855V4.00016H2.66659H1.99992C1.63325 4.00016 1.33325 4.30016 1.33325 4.66683C1.33325 5.0335 1.63325 5.3335 1.99992 5.3335H2.66659V12.6668C2.66659 13.7695 3.56392 14.6668 4.66658 14.6668H11.3333C12.4359 14.6668 13.3333 13.7695 13.3333 12.6668V5.3335H13.9999C14.3666 5.3335 14.6666 5.0335 14.6666 4.66683C14.6666 4.30016 14.3666 4.00016 13.9999 4.00016Z" fill="#DA2F2F"/>
<mask id="mask0_2027_3219" style="mask-type:luminance" maskUnits="userSpaceOnUse" x="1" y="1" width="14" height="14">
<path fill-rule="evenodd" clip-rule="evenodd" d="M10.6666 10.6668C10.6666 11.0335 10.3666 11.3335 9.99992 11.3335C9.63325 11.3335 9.33325 11.0335 9.33325 10.6668V8.00016C9.33325 7.6335 9.63325 7.3335 9.99992 7.3335C10.3666 7.3335 10.6666 7.6335 10.6666 8.00016V10.6668ZM6.66659 2.8855C6.66659 2.78216 6.80925 2.66683 6.99992 2.66683H8.99992C9.19059 2.66683 9.33325 2.78216 9.33325 2.8855V4.00016H6.66659V2.8855ZM6.66659 10.6668C6.66659 11.0335 6.36659 11.3335 5.99992 11.3335C5.63325 11.3335 5.33325 11.0335 5.33325 10.6668V8.00016C5.33325 7.6335 5.63325 7.3335 5.99992 7.3335C6.36659 7.3335 6.66659 7.6335 6.66659 8.00016V10.6668ZM13.9999 4.00016H13.3333H10.6666V2.8855C10.6666 2.0295 9.91925 1.3335 8.99992 1.3335H6.99992C6.08059 1.3335 5.33325 2.0295 5.33325 2.8855V4.00016H2.66659H1.99992C1.63325 4.00016 1.33325 4.30016 1.33325 4.66683C1.33325 5.0335 1.63325 5.3335 1.99992 5.3335H2.66659V12.6668C2.66659 13.7695 3.56392 14.6668 4.66658 14.6668H11.3333C12.4359 14.6668 13.3333 13.7695 13.3333 12.6668V5.3335H13.9999C14.3666 5.3335 14.6666 5.0335 14.6666 4.66683C14.6666 4.30016 14.3666 4.00016 13.9999 4.00016Z" fill="white"/>
</mask>
<g mask="url(#mask0_2027_3219)">
<rect width="16" height="16" fill="#DA2F2F"/>
</g>
</svg>
