<svg width="326" height="241" viewBox="0 0 326 241" fill="none" xmlns="http://www.w3.org/2000/svg">
<g opacity="0.5" clip-path="url(#clip0_2445_2912)">
<path d="M311.61 27.928V216.273C311.61 223.313 305.912 229.02 298.882 229.02H25.3485C18.3183 229.02 12.6156 223.313 12.6156 216.273V27.928C12.6156 20.8877 18.3183 15.1812 25.3485 15.1812H298.882C305.912 15.1812 311.61 20.8877 311.61 27.928Z" fill="#ECECEC"/>
<path d="M311.61 27.928V49.7292H12.6156V27.928C12.6156 20.8877 18.3183 15.1812 25.3485 15.1812H298.882C305.912 15.1812 311.61 20.8877 311.61 27.928Z" fill="#383838"/>
<path d="M31.9192 37.1848C34.5282 37.1848 36.6432 35.0667 36.6432 32.454C36.6432 29.8412 34.5282 27.7231 31.9192 27.7231C29.3102 27.7231 27.1952 29.8412 27.1952 32.454C27.1952 35.0667 29.3102 37.1848 31.9192 37.1848Z" fill="white"/>
<path d="M52.25 37.1848C54.859 37.1848 56.974 35.0667 56.974 32.454C56.974 29.8412 54.859 27.7231 52.25 27.7231C49.641 27.7231 47.526 29.8412 47.526 32.454C47.526 35.0667 49.641 37.1848 52.25 37.1848Z" fill="#808080"/>
<path d="M72.5808 37.1848C75.1898 37.1848 77.3048 35.0667 77.3048 32.454C77.3048 29.8412 75.1898 27.7231 72.5808 27.7231C69.9718 27.7231 67.8568 29.8412 67.8568 32.454C67.8568 35.0667 69.9718 37.1848 72.5808 37.1848Z" fill="#A0A0A0"/>
<path d="M288.82 37.1848H179.98C177.373 37.1848 175.256 35.0678 175.256 32.454C175.256 29.8424 177.37 27.7231 179.98 27.7231H288.82C291.428 27.7231 293.544 29.8401 293.544 32.454C293.542 35.0655 291.428 37.1848 288.82 37.1848Z" fill="white"/>
<path d="M146.234 202.139C163.712 202.139 177.881 200.604 177.881 198.711C177.881 196.817 163.712 195.282 146.234 195.282C128.756 195.282 114.587 196.817 114.587 198.711C114.587 200.604 128.756 202.139 146.234 202.139Z" fill="white"/>
<path d="M168.024 198.645H127.159C114.223 178.49 110.938 154.017 110.938 154.017L144.205 138.784C144.205 138.784 144.205 142.28 144.893 146.442C146.308 144.551 147.704 142.942 148.936 141.631C151.135 139.294 154.853 139.323 157.036 141.675C158.017 142.734 158.522 144.097 158.522 145.469C158.522 146.473 158.252 147.489 157.691 148.389C155.139 152.513 151.465 159.433 152.008 164.374L168.024 198.645Z" fill="#C6C6C6"/>
<path d="M144.895 146.442C143.096 148.844 141.266 151.69 139.686 154.948" stroke="#ADADAD" stroke-width="9.062" stroke-miterlimit="10" stroke-linecap="round" stroke-linejoin="round"/>
<path d="M96.4418 163.307C95.6575 163.339 94.8932 162.907 94.5335 162.153C94.053 161.141 94.4821 159.93 95.4899 159.449L158.774 129.308C159.784 128.826 160.993 129.256 161.474 130.265C161.954 131.277 161.525 132.488 160.517 132.969L97.2329 163.11C96.9782 163.233 96.71 163.296 96.4418 163.307Z" fill="#383838"/>
<path d="M190.794 157.409C213.477 157.409 231.864 138.994 231.864 116.279C231.864 93.5637 213.477 75.1494 190.794 75.1494C168.112 75.1494 149.724 93.5637 149.724 116.279C149.724 138.994 168.112 157.409 190.794 157.409Z" fill="#ECECEC" stroke="#373737" stroke-width="16.312" stroke-miterlimit="10"/>
<path d="M213.694 120.11L195.965 113.81L202.255 96.0549C203.004 93.9446 201.9 91.6261 199.793 90.8765C197.685 90.129 195.37 91.2323 194.622 93.3426L188.334 111.098L170.604 104.8C168.495 104.053 166.182 105.156 165.433 107.267C164.685 109.377 165.789 111.695 167.896 112.445L185.625 118.742L179.335 136.5C178.586 138.61 179.69 140.928 181.797 141.678C182.244 141.837 182.702 141.913 183.152 141.913C184.819 141.913 186.381 140.875 186.968 139.212L193.259 121.457L210.988 127.754C211.435 127.913 211.893 127.989 212.342 127.989C214.009 127.989 215.571 126.951 216.159 125.288C216.903 123.178 215.802 120.859 213.694 120.11Z" fill="#808080"/>
<path d="M114.828 164.424L114.808 164.433C113.581 164.818 112.245 164.677 111.139 164.028C98.5422 156.61 102.232 143.65 113.047 146.83C113.351 149.845 114.623 153.437 117.268 157.48C118.947 160.049 117.753 163.509 114.828 164.424Z" fill="#C6C6C6"/>
<path d="M117.267 157.48C118.948 160.047 117.752 163.507 114.829 164.424L114.809 164.433C113.582 164.818 112.246 164.677 111.14 164.028" stroke="#ADADAD" stroke-width="9.062" stroke-miterlimit="10" stroke-linecap="round" stroke-linejoin="round"/>
<path d="M128.002 156.093C128.002 158.181 126.766 160.166 124.706 160.996C122.466 161.9 119.894 161.166 118.469 159.215C106.315 142.561 117.014 132.79 124.674 138.168C124.031 142.001 124.719 147.218 127.581 154.014C127.868 154.694 128.002 155.401 128.002 156.093Z" fill="#C6C6C6"/>
<path d="M128.005 156.094C128.005 158.182 126.769 160.167 124.709 160.997C122.47 161.901 119.898 161.167 118.472 159.216C115.002 154.462 113.395 150.269 113.049 146.829" stroke="#ADADAD" stroke-width="9.062" stroke-miterlimit="10" stroke-linecap="round" stroke-linejoin="round"/>
<path d="M143.66 137.395C141.181 124.722 115.51 125.894 127.729 154.369C128.844 156.967 131.756 158.287 134.437 157.403C137.092 156.528 138.654 153.785 138.051 151.052C137.26 147.465 136.341 142.804 136.344 140.541L143.66 137.395Z" fill="#C6C6C6"/>
<path d="M124.714 137.92C123.988 141.836 124.674 147.247 127.729 154.366C128.844 156.964 131.756 158.284 134.437 157.4C137.092 156.525 138.654 153.782 138.051 151.049C137.61 149.051 137.13 146.717 136.79 144.651" stroke="#ADADAD" stroke-width="9.062" stroke-miterlimit="10" stroke-linecap="round" stroke-linejoin="round"/>
<path d="M184.496 149.129L145.455 169.813C141.589 171.861 136.95 169.001 137.032 164.624L137.908 118.99C137.995 114.476 143.008 111.819 146.784 114.288L184.949 139.238C188.61 141.63 188.359 147.081 184.496 149.129Z" fill="#808080"/>
<path d="M158.435 153.06C157.441 152.774 156.701 152.174 156.219 151.261C155.736 150.348 155.658 149.415 155.982 148.459C156.306 147.503 156.972 146.761 157.977 146.226C158.985 145.693 159.973 145.561 160.943 145.83C161.912 146.098 162.639 146.689 163.121 147.602C163.604 148.515 163.682 149.464 163.36 150.449C163.036 151.435 162.384 152.187 161.401 152.709C160.42 153.23 159.43 153.347 158.435 153.06ZM147.144 127.634L148.726 126.794C150.107 126.063 151.819 126.656 152.453 128.083L157.832 140.181C158.409 141.479 157.883 143.005 156.628 143.67C155.372 144.335 153.819 143.912 153.07 142.703L146.109 131.445C145.287 130.113 145.763 128.365 147.144 127.634Z" fill="#ECECEC"/>
<path d="M140.689 204.163V160.744C140.689 155.698 144.774 151.605 149.815 151.605H175.895C180.934 151.605 185.021 155.696 185.021 160.744V204.163C185.021 209.21 180.936 213.303 175.895 213.303H149.815C144.774 213.3 140.689 209.21 140.689 204.163Z" fill="#A0A0A0"/>
<path d="M158.892 183.322C159.909 182.337 161.313 181.305 163.102 180.229C164.414 179.441 165.4 178.754 166.057 178.17C166.716 177.586 167.131 176.856 167.304 175.986C167.549 174.746 167.245 173.667 166.394 172.752C165.543 171.837 164.291 171.217 162.638 170.895C161.053 170.584 159.581 170.635 158.222 171.049C157.639 171.226 157.082 171.459 156.553 171.745C155.23 172.459 153.619 172.343 152.49 171.349L152.434 171.3C150.548 169.637 150.98 166.578 153.254 165.508C154.081 165.119 154.957 164.803 155.882 164.557C158.524 163.854 161.498 163.828 164.801 164.474C168.678 165.233 171.623 166.663 173.643 168.764C175.661 170.866 176.381 173.374 175.804 176.29C175.531 177.666 175.067 178.828 174.405 179.777C173.744 180.728 173.013 181.498 172.213 182.091C171.413 182.684 170.398 183.346 169.167 184.08C167.701 184.942 166.606 185.694 165.885 186.336C165.578 186.609 165.317 186.92 165.102 187.269C164.506 188.24 163.324 188.681 162.206 188.462L160.381 188.104C158.18 187.674 157.259 184.919 158.861 183.351C158.872 183.339 158.881 183.33 158.892 183.322ZM154.993 198.776C154.242 197.706 153.992 196.534 154.244 195.26C154.497 193.987 155.163 193.011 156.242 192.336C157.321 191.66 158.568 191.458 159.985 191.736C161.402 192.013 162.479 192.669 163.221 193.701C163.963 194.735 164.206 195.887 163.954 197.16C163.701 198.436 163.024 199.425 161.92 200.132C160.816 200.839 159.574 201.057 158.193 200.788C156.81 200.515 155.744 199.846 154.993 198.776Z" fill="white"/>
</g>
<defs>
<clipPath id="clip0_2445_2912">
<rect width="326" height="241" fill="white"/>
</clipPath>
</defs>
</svg>
